<svg width="20" height="20" viewBox="0 0 20 20" fill="none" xmlns="http://www.w3.org/2000/svg">
<g clip-path="url(#clip0_637_3177)">
<path d="M10 0C15.5234 0 20 4.47754 20 10C20 15.5234 15.5234 20 10 20C4.47754 20 0 15.5229 0 10C0 4.47754 4.47754 0 10 0Z" fill="#F5AC37"/>
<path d="M10.3687 10.706H14.1685C14.2495 10.706 14.2877 10.706 14.2936 10.5998C14.3246 10.2133 14.3246 9.82446 14.2936 9.43746C14.2936 9.3623 14.2562 9.33125 14.1748 9.33125H6.61247C6.51887 9.33125 6.49367 9.3623 6.49367 9.45006V10.5625C6.49367 10.706 6.49367 10.706 6.64352 10.706H10.3687ZM13.8692 8.03119C13.88 8.00284 13.88 7.97179 13.8692 7.94389C13.8058 7.80574 13.7306 7.67389 13.6433 7.55014C13.5119 7.33863 13.3571 7.14378 13.1807 6.96873C13.0975 6.86298 13.0012 6.76803 12.8932 6.68748C12.3523 6.22712 11.7092 5.90132 11.018 5.73752C10.6693 5.65922 10.3129 5.62187 9.95556 5.62502H6.59942C6.50582 5.62502 6.49322 5.66237 6.49322 5.74382V7.96234C6.49322 8.05594 6.49322 8.08114 6.61202 8.08114H13.8242C13.8242 8.08114 13.8868 8.06854 13.8994 8.03119H13.8688H13.8692ZM13.8692 12.0061C13.763 11.9944 13.6559 11.9944 13.5497 12.0061H6.61877C6.52517 12.0061 6.49367 12.0061 6.49367 12.1312V14.3002C6.49367 14.4001 6.49367 14.4253 6.61877 14.4253H9.81875C9.97176 14.437 10.1248 14.4262 10.2746 14.3943C10.739 14.361 11.1958 14.2602 11.6314 14.0941C11.7898 14.0392 11.9428 13.9677 12.0872 13.8817H12.1309C12.881 13.4915 13.4903 12.8786 13.8746 12.1262C13.8746 12.1262 13.9183 12.0317 13.8692 12.007V12.0061ZM5.23771 15.5499V15.5125V14.0563V13.5626V12.0938C5.23771 12.0124 5.23771 12.0002 5.13781 12.0002H3.78149C3.70634 12.0002 3.67529 12.0002 3.67529 11.9003V10.7128H5.12521C5.20621 10.7128 5.23771 10.7128 5.23771 10.6066V9.4316C5.23771 9.35645 5.23771 9.338 5.13781 9.338H3.78149C3.70634 9.338 3.67529 9.338 3.67529 9.2381V8.13829C3.67529 8.06944 3.67529 8.05099 3.77519 8.05099H5.11891C5.21251 8.05099 5.23771 8.05099 5.23771 7.93219V4.56346C5.23771 4.46356 5.23771 4.43835 5.36281 4.43835H10.0501C10.3903 4.45185 10.7282 4.48921 11.0626 4.55086C11.7515 4.67821 12.4135 4.92436 13.0187 5.27581C13.4201 5.51207 13.7896 5.79737 14.1185 6.12587C14.366 6.38282 14.5893 6.66093 14.7873 6.95703C14.9839 7.25718 15.1473 7.57804 15.2755 7.91329C15.2913 8.00059 15.375 8.05954 15.4623 8.04469H16.581C16.7245 8.04469 16.7245 8.04469 16.7308 8.18239V9.2075C16.7308 9.3074 16.6935 9.3326 16.5931 9.3326H15.7305C15.6432 9.3326 15.618 9.3326 15.6243 9.44511C15.6585 9.82581 15.6585 10.2079 15.6243 10.5886C15.6243 10.6948 15.6243 10.7074 15.7435 10.7074H16.7304C16.774 10.7636 16.7304 10.8199 16.7304 10.8766C16.7367 10.949 16.7367 11.0224 16.7304 11.0948V11.8513C16.7304 11.9575 16.6993 11.989 16.6053 11.989H15.424C15.3417 11.9732 15.2616 12.0259 15.2427 12.1078C14.9614 12.839 14.5114 13.4947 13.93 14.0203C13.7176 14.2116 13.4944 14.3916 13.2613 14.5576C13.0111 14.7016 12.7676 14.8515 12.5111 14.9703C12.0391 15.1827 11.5441 15.3393 11.036 15.4387C10.5536 15.5251 10.0645 15.5643 9.5735 15.5575H5.23591V15.5512L5.23771 15.5499Z" fill="#FEFEFD"/>
</g>
<defs>
<clipPath id="clip0_637_3177">
<rect width="20" height="20" fill="white"/>
</clipPath>
</defs>
</svg>
